<svg width="156" height="142" viewBox="0 0 156 142" fill="none" xmlns="http://www.w3.org/2000/svg">
<path d="M116 114C122.627 114 128 108.627 128 102C128 95.3726 122.627 90 116 90C109.373 90 104 95.3726 104 102C104 108.627 109.373 114 116 114Z" stroke="black" stroke-width="11" stroke-linecap="round" stroke-linejoin="round"/>
<path d="M42.5 61C49.4036 61 55 55.6274 55 49C55 42.3726 49.4036 37 42.5 37C35.5964 37 30 42.3726 30 49C30 55.6274 35.5964 61 42.5 61Z" stroke="black" stroke-width="11" stroke-linecap="round" stroke-linejoin="round"/>
<path d="M42.5 111V87V63C42.5 72.7153 54.4545 87 65 95C75.5455 103 93.2765 103 103 103" stroke="black" stroke-width="11" stroke-linecap="round" stroke-linejoin="round"/>
<path d="M150 121.556C150 125.386 148.483 129.06 145.782 131.769C143.082 134.478 139.419 136 135.6 136H20.4C16.5809 136 12.9182 134.478 10.2177 131.769C7.51714 129.06 6 125.386 6 121.556V20.4444C6 16.6135 7.51714 12.9395 10.2177 10.2307C12.9182 7.52182 16.5809 6 20.4 6H56.4L70.8 27.6667H135.6C139.419 27.6667 143.082 29.1885 145.782 31.8973C148.483 34.6062 150 38.2802 150 42.1111V121.556Z" stroke="black" stroke-width="11" stroke-linecap="round" stroke-linejoin="round"/>
</svg>
